<?xml version="1.0" encoding="utf-8"?>
<!-- Generator: Adobe Illustrator 19.2.1, SVG Export Plug-In . SVG Version: 6.00 Build 0)  -->
<svg version="1.1" id="Layer_1" xmlns="http://www.w3.org/2000/svg" xmlns:xlink="http://www.w3.org/1999/xlink" x="0px" y="0px"
	 width="260px" height="26px" viewBox="0 0 260 26" style="enable-background:new 0 0 260 26;" xml:space="preserve">
<style type="text/css">
	.st0{fill:#F05046;}
	.st1{fill:#CDA582;}
</style>
<g>
	<g>
		<polygon class="st0" points="90.1,18.3 79.8,0.7 79.7,0.6 78.3,0.6 78.3,25.4 79.8,25.4 79.8,3.6 89.6,20.1 89.6,20.2 90.6,20.2 
			100.5,3.6 100.5,25.4 101.9,25.4 101.9,0.6 100.5,0.6 		"/>
		<path class="st0" d="M119.3,0.5c-7.1,0-12.2,5.3-12.2,12.5c0,7.3,5.1,12.5,12.2,12.5c7,0,12.1-5.3,12.1-12.5
			C131.4,5.7,126.3,0.5,119.3,0.5z M119.3,24.1c-6.2,0-10.7-4.7-10.7-11.1c0-6.3,4.6-11,10.7-11c6.1,0,10.6,4.6,10.6,11
			C129.9,19.3,125.3,24.1,119.3,24.1z"/>
		<polygon class="st0" points="143.2,23.1 134.6,0.7 134.6,0.6 133,0.6 142.5,25.3 142.5,25.4 143.8,25.4 153.3,0.6 151.7,0.6 		"/>
		<rect x="157.2" y="0.6" class="st0" width="1.4" height="24.7"/>
		<polygon class="st0" points="166.6,23.9 166.6,13.7 179.4,13.7 179.4,12.3 166.6,12.3 166.6,2.1 181.6,2.1 181.6,0.6 165.1,0.6 
			165.1,25.4 182.3,25.4 182.3,23.9 		"/>
	</g>
	<g>
		<path class="st1" d="M15.1,9.5c-2.3,0-3.6,1-3.8,2.9c0,0.2,0,0.4,0,0.4h1.2c0,0,0-0.2,0-0.3c0.2-1.1,0.7-1.7,2.6-1.7
			c2.7,0,2.7,1.7,2.7,3.1v0.8h-3.4c-2.5,0-3.8,1-3.8,3.2c0,2,1.4,3.2,3.6,3.2h0.5c1.4,0,2.5-0.6,3.1-1.5v1.3h1.2v-6.9
			C19.1,12.2,19.1,9.5,15.1,9.5z M17.9,16.4c0,0.5-0.1,3.3-3.1,3.3h-0.5c-1.4,0-2.3-0.8-2.3-2c0-1.2,0.4-2,2.6-2h3.4V16.4z"/>
		<rect x="0" y="0.6" class="st1" width="72.6" height="1"/>
		<polygon class="st1" points="10.3,6.5 10.3,5.4 0.9,5.4 0.9,20.6 2.1,20.6 2.1,13.9 8.7,13.9 8.7,12.8 2.1,12.8 2.1,6.5 		"/>
		<path class="st1" d="M46,9.5c-2.3,0-3.6,1-3.8,2.9c0,0.2,0,0.4,0,0.4h1.2c0,0,0-0.2,0-0.3c0.2-1.1,0.7-1.7,2.6-1.7
			c2.7,0,2.7,1.7,2.7,3.1v0.8h-3.4c-2.5,0-3.8,1-3.8,3.2c0,2,1.4,3.2,3.6,3.2h0.5c1.4,0,2.5-0.6,3.1-1.5v1.3h1.2v-6.9
			C49.9,12.2,49.9,9.5,46,9.5z M48.7,16.4c0,0.5-0.1,3.3-3.1,3.3h-0.5c-1.4,0-2.3-0.8-2.3-2c0-1.2,0.4-2,2.6-2h3.4V16.4z"/>
		<path class="st1" d="M26.9,9.5c-1.6,0-2.5,0.8-3,1.6V9.7h-1.2v11h1.2v-6.4c0-2.3,1.1-3.6,3-3.6c1.9,0,3,1.4,3,3.6v6.4h1.2v-6.4
			C31.1,11.3,29.5,9.5,26.9,9.5z"/>
		<path class="st1" d="M57.2,14.5c-1.6-0.3-2.9-0.6-2.9-2.1c0-1.7,2-1.8,2.4-1.8c2.4,0,2.6,1.2,2.7,1.8c0,0,0,0,0,0
			c0,0.1,0,0.3,0,0.3h1.2c0,0,0-0.5-0.1-0.7l0,0c-0.1-0.4-0.3-0.9-0.7-1.4c-0.7-0.7-1.7-1-3.1-1c-1.8,0-3.6,0.9-3.6,2.9
			c0,2.6,2,3,3.8,3.4c1.5,0.3,2.8,0.6,2.8,2c0,1.6-1.5,2-2.8,2c-1.7,0-2.6-1-2.8-1.9c0,0,0,0,0,0c0-0.1,0-0.2,0-0.2h-1.2
			c0,0,0.1,0.4,0.1,0.5h0c0.3,1.4,1.6,2.7,4,2.7c2.5,0,4-1.1,4-3.1C60.9,15.3,59,14.9,57.2,14.5z"/>
		<path class="st1" d="M36.4,10.8h2.9V9.7h-2.9V6.9h-1.2v1.6c0,0.7-0.6,1.3-1.3,1.3h-0.8v1.1h2.1v5.6c0,2.9,0.3,4.2,3.6,4.2h0.5
			v-1.2h-0.5c-2.2,0-2.4-0.6-2.4-3V10.8z"/>
		<path class="st1" d="M71.4,9.7l-3.6,9.2l-3.7-9.2h-1.3l4.4,10.7c0,0-1,2.7-1.1,2.9c-0.5,0.8-1,1-1.9,1H0v1h64.1h0.1l0,0
			c1.9,0,2.7-0.9,3.3-2.4l5.3-13.3H71.4z"/>
	</g>
	<g>
		<rect x="237" y="24.3" class="st1" width="23" height="1"/>
		<g>
			<rect x="187.3" y="24.3" class="st1" width="35" height="1"/>
		</g>
		<rect x="187.3" y="0.6" class="st1" width="72.7" height="1"/>
		<path class="st1" d="M256.8,15.7v-1.4c0-2.9-1.7-4.8-4.3-4.8s-4.3,1.9-4.3,4.8v1.8c0,2.9,1.7,4.8,4.4,4.8c1.6,0,3.5-0.8,4.1-3.1
			l0-0.1c0,0,0,0,0-0.1h0c0,0,0,0,0,0c0,0,0,0,0,0c0,0,0,0,0,0c0,0,0,0,0,0c0-0.1,0.1-0.3,0.1-0.3h-1.2c0,0,0,0.1-0.1,0.3
			c-0.7,2.2-2.4,2.2-3,2.2c-1.9,0-3.1-1.4-3.1-3.5v-0.5H256.8z M249.4,14.2c0-2.2,1.2-3.6,3.1-3.6c1.9,0,3.1,1.4,3.1,3.6v0.3h-6.2
			V14.2z"/>
		<path class="st1" d="M217.9,9.5c-2.3,0-3.6,1-3.8,2.9c0,0.2,0,0.4,0,0.4h1.2c0,0,0-0.2,0-0.3c0.2-1.1,0.7-1.7,2.6-1.7
			c2.7,0,2.7,1.7,2.7,3.1v0.8h-3.4c-2.5,0-3.8,1-3.8,3.2c0,2,1.4,3.2,3.6,3.2h0.5c1.4,0,2.5-0.6,3.1-1.5v1.3h1.2v-6.9
			C221.9,12.2,221.9,9.5,217.9,9.5z M220.7,16.4c0,0.5-0.1,3.3-3.1,3.3h-0.5c-1.4,0-2.3-0.8-2.3-2c0-1.2,0.4-2,2.6-2h3.4V16.4z"/>
		<path class="st1" d="M230.8,18.9H228c-1.4,0-1.8-0.3-1.8-1.1c0-0.7,0.4-1.1,1.4-1.1h2.4c1.9,0,3.9-1.3,3.9-3.7V8.5h-1.2v2
			c-0.8-0.7-1.6-1-2.7-1h-0.6c-2.2,0-3.9,1.6-3.9,3.6c0,1,0.2,1.8,1.2,2.7c-1.1,0.2-1.7,1-1.7,2.1c0,0.9,0.4,1.4,1.2,1.8
			c-0.8,0.6-1.2,1.4-1.2,2.4c0,1.9,1.4,3.1,3.6,3.1h2.3c2.2,0,3.6-1.2,3.6-3.1C234.4,20.2,233,18.9,230.8,18.9z M226.6,13.1
			c0-1.5,1.1-2.5,2.7-2.5h0.4c1.6,0,2.7,1.1,2.7,2.6c0,1.5-1.1,2.5-2.7,2.5h-0.4C227.8,15.7,226.6,14.6,226.6,13.1z M230.7,24h-2.2
			c-1.6,0-2.4-0.6-2.4-1.9c0-1.3,0.8-2,2.4-2h2.2c2,0,2.4,1.1,2.4,2C233.1,23.4,232.3,24,230.7,24z"/>
		<polygon class="st1" points="191.7,5.4 190.5,5.4 190.5,20.6 200.1,20.6 200.1,19.4 191.7,19.4 		"/>
		<path class="st1" d="M206.6,9.5c-2.6,0-4.3,1.9-4.3,4.8v1.8c0,2.9,1.7,4.8,4.4,4.8c1.6,0,3.5-0.8,4.1-3.1l0-0.1c0,0,0,0,0-0.1h0
			c0,0,0,0,0,0c0,0,0,0,0,0c0,0,0,0,0,0c0,0,0,0,0,0c0-0.1,0.1-0.3,0.1-0.3h-1.2c0,0,0,0.1-0.1,0.3c-0.7,2.2-2.4,2.2-3,2.2
			c-1.9,0-3.1-1.4-3.1-3.5v-0.5h7.4v-1.4C210.9,11.3,209.2,9.5,206.6,9.5z M209.7,14.5h-6.2v-0.3c0-2.2,1.2-3.6,3.1-3.6
			c1.9,0,3.1,1.4,3.1,3.6V14.5z"/>
		<path class="st1" d="M243.7,9.7v6.4c0,2.3-1.1,3.6-3,3.6c-1.8,0-2.7-1.2-2.7-3.6V9.7h-1.2v6.4c0,3,1.4,4.8,3.9,4.8
			c1.7,0,2.6-0.8,3-1.4v1.2h1.2v-11H243.7z"/>
	</g>
</g>
</svg>
